<svg xmlns="http://www.w3.org/2000/svg" viewBox="0 0 214 50"><linearGradient id="a" gradientUnits="userSpaceOnUse" x1="64.48" y1="16.522" x2="96.377" y2="16.522"><stop offset="0" stop-color="#e89500"/><stop offset="1" stop-color="#e89500"/></linearGradient><path d="M85.36 11.01V0H74.35v11.01h-9.87a22.02 22.02 0 011.61 8.26v2.75h8.26v11.01h11.01v-11h11.01V11.01H85.36z" fill="url(#a)"/><linearGradient id="b" gradientUnits="userSpaceOnUse" x1="0" y1="24.783" x2="63.334" y2="24.783"><stop offset="0" stop-color="#ff2a2a"/><stop offset=".159" stop-color="#fd3227"/><stop offset=".412" stop-color="#f8491e"/><stop offset=".725" stop-color="#f06e0f"/><stop offset="1" stop-color="#e89500"/></linearGradient><path d="M49.57.8c-1.75-.52-3.6-.8-5.51-.8s-3.76.28-5.51.8c-2.56.76-4.89 2.04-6.88 3.71A19.291 19.291 0 0024.79.8c-1.75-.52-3.6-.8-5.51-.8s-3.76.28-5.51.8C5.8 3.17 0 10.54 0 19.28v30.29h13.77V19.28c0-3.04 2.46-5.51 5.51-5.51s5.51 2.46 5.51 5.51v30.29h13.77V19.28c0-3.04 2.46-5.51 5.51-5.51s5.51 2.46 5.51 5.51v30.29h13.77V19.28C63.33 10.54 57.53 3.17 49.57.8z" fill="url(#b)"/><g fill="#3a3a3a"><path d="M197.13 40.01v9.55h-4.67V40.7c0-1.93-1.21-2.83-2.71-2.83-1.71 0-2.89 1-2.89 3.21v8.5h-4.67v-21.8h4.67v7.69c.84-1.15 2.4-1.9 4.45-1.9 3.14 0 5.82 2.24 5.82 6.44zM176.19 38.49V44c0 1.34 1.15 1.46 3.21 1.34v4.23c-6.1.62-7.87-1.21-7.87-5.57v-5.51h-2.49v-4.48h2.49v-2.96l4.67-1.4v4.36h3.21v4.48h-3.22zM162.19 26.85h4.67v22.72h-4.67V26.85zM159.08 34.01v15.56h-4.67V48.1c-1.03 1.18-2.55 1.9-4.64 1.9-4.08 0-7.44-3.58-7.44-8.22 0-4.64 3.36-8.22 7.44-8.22 2.09 0 3.61.72 4.64 1.9V34h4.67zm-4.67 7.77c0-2.33-1.56-3.8-3.7-3.8-2.15 0-3.7 1.46-3.7 3.8 0 2.33 1.56 3.8 3.7 3.8s3.7-1.46 3.7-3.8zM133.12 45.83c1.28 0 2.37-.5 2.99-1.18l3.73 2.15c-1.52 2.12-3.83 3.21-6.78 3.21-5.32 0-8.62-3.58-8.62-8.22 0-4.64 3.36-8.22 8.28-8.22 4.54 0 7.9 3.52 7.9 8.22 0 .65-.06 1.28-.19 1.87h-11.05c.6 1.61 2.03 2.17 3.74 2.17zm2.87-5.66c-.5-1.8-1.9-2.46-3.3-2.46-1.77 0-2.96.87-3.39 2.46h6.69zM122.33 40.01v9.55h-4.67V40.7c0-1.93-1.21-2.83-2.71-2.83-1.71 0-2.89 1-2.89 3.21v8.5h-4.67v-21.8h4.67v7.69c.84-1.15 2.4-1.9 4.45-1.9 3.14 0 5.82 2.24 5.82 6.44zM206.31 18.2c1.28 0 2.37-.5 2.99-1.18l3.73 2.15c-1.52 2.12-3.83 3.21-6.78 3.21-5.32 0-8.62-3.58-8.62-8.22 0-4.64 3.36-8.22 8.28-8.22 4.54 0 7.9 3.52 7.9 8.22 0 .65-.06 1.28-.19 1.87h-11.05c.6 1.61 2.03 2.17 3.74 2.17zm2.86-5.66c-.5-1.8-1.9-2.46-3.3-2.46-1.77 0-2.96.87-3.39 2.46h6.69zm-1.77-8.18h-4.48L205.41 0h5.6l-3.61 4.36zM195.67 12.38v9.55H191v-8.87c0-1.93-1.21-2.83-2.71-2.83-1.71 0-2.89 1-2.89 3.21v8.5h-4.67V.16h4.67v7.69c.84-1.15 2.4-1.9 4.45-1.9 3.14-.01 5.82 2.23 5.82 6.43zM163.59 14.16c0-4.64 3.52-8.22 8.25-8.22 3.02 0 5.69 1.59 7.03 3.98l-4.08 2.36c-.53-1.09-1.65-1.74-3.02-1.74-2.02 0-3.52 1.46-3.52 3.61s1.49 3.61 3.52 3.61c1.37 0 2.52-.65 3.02-1.74l4.08 2.33c-1.34 2.43-3.98 4.01-7.03 4.01-4.74.01-8.25-3.56-8.25-8.2zM162.5 6.07v5.29c-1.93-.31-4.67.47-4.67 3.55v7.03h-4.67V6.38h4.67v2.77c.62-2.09 2.71-3.08 4.67-3.08zM149.59 6.38v15.56h-4.67v-1.46c-1.03 1.18-2.55 1.9-4.64 1.9-4.08 0-7.44-3.58-7.44-8.22 0-4.64 3.36-8.22 7.44-8.22 2.08 0 3.61.72 4.64 1.9V6.38h4.67zm-4.67 7.78c0-2.33-1.56-3.8-3.7-3.8-2.15 0-3.7 1.46-3.7 3.8 0 2.33 1.56 3.8 3.7 3.8 2.14-.01 3.7-1.47 3.7-3.8zM130.73 12.38v9.55h-4.67v-9.15c0-1.56-.75-2.55-2.24-2.55-1.56 0-2.43 1.09-2.43 2.93v8.78h-4.67v-9.15c0-1.56-.75-2.55-2.24-2.55-1.56 0-2.43 1.09-2.43 2.93v8.78h-4.67V6.38h4.67v1.43c.72-1.06 2.09-1.87 4.17-1.87 1.84 0 3.21.75 4.08 2.05.87-1.24 2.3-2.05 4.51-2.05 3.59 0 5.92 2.56 5.92 6.44z"/></g></svg>